<?xml version="1.0" encoding="UTF-8" standalone="no"?>
<!-- Created with Inkscape (http://www.inkscape.org/) -->

<svg
   version="1.1"
   id="svg1"
   width="1024"
   height="1024"
   viewBox="0 0 1024 1024"
   xmlns="http://www.w3.org/2000/svg"
   xmlns:svg="http://www.w3.org/2000/svg">
  <defs
     id="defs1" />
  <g
     id="g1">
    <path
       style="fill:#4600fd;fill-opacity:1;stroke-width:2.32468"
       d="m 229.7832,981.25158 c -30.89648,-0.92139 -49.49131,-2.4256 -52.70967,-4.26386 -7.38567,-4.21856 -21.15002,-26.15593 -24.34471,-38.80018 -2.16284,-8.5602 -2.18834,-21.1625 -0.11228,-55.49975 4.41888,-73.08982 9.33505,-171.46541 15.44118,-308.98873 6.92973,-156.07233 12.22574,-261.36335 14.79906,-294.22349 1.52078,-19.41932 2.93465,-25.6747 7.1305,-31.54726 10.04646,-14.06106 15.12619,-15.29767 66.28063,-16.13535 28.82828,-0.47205 47.1571,0.1181 48.60933,1.56552 1.47047,1.46546 1.71398,10.52843 0.65951,24.54536 l -1.67183,22.22206 H 271.9264 c -22.04615,0 -33.07233,0.8985 -35.59908,2.90092 -3.90124,3.09168 -4.32891,7.91499 -8.90026,100.37186 -2.35383,47.607 -7.45376,133.17381 -11.6189,194.94186 -1.29104,19.14607 -4.49541,84.93896 -7.1208,146.2064 -2.62541,61.26745 -6.20645,126.53249 -7.95787,145.03346 -1.7514,18.50096 -2.6564,34.16428 -2.0111,34.80739 0.64529,0.64311 2.65105,-0.91771 4.45724,-3.46852 11.78118,-16.63803 29.68016,-35.82326 58.70783,-62.92667 29.83557,-27.85773 34.12044,-31.05952 41.56617,-31.05952 6.33613,0 10.17603,1.86812 16.21894,7.8905 12.95188,12.90795 10.415,19.7984 -14.5699,39.57351 -9.16611,7.25484 -17.92288,16.21551 -19.4595,19.91262 -1.53662,3.69711 -3.55452,6.49804 -4.48426,6.2243 -0.92969,-0.27375 -13.65461,11.48525 -28.27753,26.13105 l -26.58716,26.62879 19.79339,1.88943 c 10.88637,1.03918 27.65258,1.33213 37.2582,0.65094 9.60563,-0.68116 130.37458,-1.26997 268.37545,-1.30848 138.00088,-0.0385 250.89214,-0.82673 250.86942,-1.75165 -0.0232,-0.92488 -19.63408,-21.5239 -43.5809,-45.7756 -48.32731,-48.94265 -51.81459,-53.09178 -51.8366,-61.67516 -0.0264,-10.22786 16.7855,-22.20081 27.563,-19.62969 3.90542,0.93167 23.63317,19.18997 53.49782,49.51298 38.10443,38.6892 47.01921,46.69125 45.8118,41.12125 -3.62162,-16.70713 -15.15595,-217.84102 -18.56815,-323.78917 -0.7605,-23.6135 -2.3868,-63.29808 -3.61397,-88.18799 -1.22716,-24.88991 -3.26851,-69.79614 -4.53628,-99.79168 -1.2678,-29.9955 -2.9681,-65.24169 -3.77844,-78.32486 l -1.47332,-23.78755 -21.26174,-0.0209 c -11.69395,-0.0111 -26.65041,-0.66543 -33.2366,-1.45404 -11.81319,-1.41454 -11.99463,-1.55716 -13.43995,-10.56497 -0.80578,-5.02207 -0.7678,-15.91381 0.0845,-24.20383 l 1.5495,-15.07275 46.81996,0.70999 c 44.67458,0.6774 47.14701,0.95462 53.95597,6.04966 14.90403,11.15238 14.76737,10.36902 19.6035,112.37209 6.05506,127.71274 8.99169,197.30578 11.72965,277.97378 1.27803,37.65395 3.87192,94.04784 5.76421,125.31976 1.89231,31.27193 4.559,79.24067 5.92596,106.59719 1.36702,27.35655 2.95008,50.48836 3.5179,51.40407 0.56788,0.91567 1.21825,8.38481 1.44534,16.59806 0.39457,14.27201 -0.082,15.66814 -10.76237,31.53304 -8.93145,13.26693 -12.87028,17.09985 -19.61744,19.09007 -9.4995,2.80208 -542.53712,4.91332 -624.36681,2.47299 z M 523.89405,780.24175 c -6.05042,-4.22352 -8.69477,-14.8103 -6.54793,-26.21513 1.33217,-7.07684 8.27313,-14.91065 42.72265,-48.21824 42.78079,-41.36266 90.78535,-84.53422 93.9977,-84.53422 4.54809,0 1.12623,-4.69597 -6.87503,-9.43488 -4.80281,-2.84458 -18.16337,-14.25189 -29.69012,-25.34952 -11.52674,-11.09766 -33.53239,-30.88219 -48.90138,-43.96566 -49.61389,-42.23574 -55.13309,-48.74995 -55.57631,-65.59566 -0.28231,-10.72979 5.83297,-17.62027 18.08126,-20.37333 13.11256,-2.94734 22.2266,0.86456 37.52664,15.69528 7.66713,7.43191 26.51488,24.25807 41.88387,37.39145 39.26028,33.54929 90.45497,84.01332 95.07662,93.7197 2.13977,4.49392 3.88194,10.62378 3.87147,13.62189 -0.0322,9.1849 -12.01733,26.498 -27.92464,40.33789 -8.32488,7.24294 -39.10992,36.81935 -68.41117,65.72539 -29.30126,28.90603 -56.02239,54.37713 -59.38027,56.60243 -7.50555,4.974 -23.13238,5.2842 -29.85336,0.59261 z M 72.570205,641.95185 c -6.765246,-3.36292 -15.10617,-16.45751 -15.10617,-23.71553 0,-8.40786 14.881012,-24.81099 22.508652,-24.81099 13.327679,0 26.392733,12.88771 26.392733,26.0345 0,7.17501 -10.786998,22.69283 -15.80225,22.73264 -2.195133,0.0185 -6.086945,0.49467 -8.648437,1.06055 -2.561502,0.56584 -6.766539,-0.0185 -9.344528,-1.30117 z m 254.118965,-4.63747 c -7.16173,-5.61426 -13.07501,-16.00587 -13.07501,-22.97703 0,-2.66563 4.02563,-9.14768 8.94589,-14.40454 l 8.9459,-9.55794 125.5329,0.52276 c 90.84406,0.3783 127.10914,1.28074 131.23702,3.26578 7.86844,3.78382 14.93415,16.4779 13.13915,23.60551 -0.78768,3.12774 -5.44937,9.89542 -10.35931,15.03933 l -8.92715,9.35254 H 457.49993 c -122.85911,0 -124.71639,-0.069 -130.81076,-4.84641 z m 614.67959,1.32776 c -7.12835,-5.37532 -12.96238,-15.65203 -12.97901,-22.86266 -0.0208,-8.89824 15.50174,-24.6749 24.27702,-24.6749 13.61164,0 26.93766,12.62873 26.93766,25.52811 0,17.61449 -24.98874,31.99865 -38.23567,22.00945 z M 349.41009,405.85032 c -16.03422,-5.56057 -22.92831,-10.36395 -31.19176,-21.73264 -13.66873,-18.80508 -14.58034,-38.76322 -2.84186,-62.21854 3.68968,-7.37258 9.4812,-14.72458 13.71112,-17.40552 l 7.32322,-4.64146 0.91851,-56.85806 c 0.87723,-54.302 1.19499,-57.6405 7.0682,-74.26356 11.08433,-31.37206 24.3719,-52.63428 47.22597,-75.569026 16.98436,-17.044323 24.71036,-22.880208 40.75115,-30.781693 30.80771,-15.175484 51.22703,-19.745362 88.48822,-19.803898 29.70111,-0.04667 32.56274,0.363453 51.83484,7.428482 60.39434,22.140139 102.09609,64.738465 119.63511,122.207235 6.12914,20.08279 6.38167,22.95912 6.56214,74.73839 l 0.1877,53.85178 10.1735,8.67862 c 20.71324,17.66957 24.01937,38.92003 10.77798,69.27642 -4.44257,10.18483 -9.42003,18.87179 -11.06102,19.30435 -1.64098,0.43257 -7.99183,2.83541 -14.11299,5.33967 -31.63886,12.94391 -69.76134,-1.30614 -79.4711,-29.70598 -9.64611,-28.21377 0.0188,-55.27994 26.13442,-73.18686 l 10.41053,-7.13833 -1.39975,-43.17351 C 648.38688,183.964 640.29385,157.64826 614.15164,131.89252 579.53341,97.786042 530.82192,82.875772 487.38715,93.090728 c -36.5575,8.597592 -77.43351,38.801902 -87.19087,64.427562 -2.59111,6.80495 -6.62783,16.02777 -8.97057,20.4952 -3.69936,7.05442 -4.36372,15.32556 -5.05203,62.89669 l -0.79251,54.7741 10.3271,6.03154 c 6.02328,3.5179 13.97984,11.3172 19.09193,18.71451 7.24234,10.47992 8.96633,15.23626 9.92495,27.38233 l 1.16016,14.69938 -12.79598,17.41283 c -19.49264,26.52568 -39.02175,34.47649 -63.67924,25.92545 z m 330.59809,-42.43383 c 5.89051,-2.67477 10.84521,-10.89134 10.84521,-17.98499 0,-5.41463 -11.85222,-16.57245 -17.59219,-16.56145 -2.49141,0.004 -7.9355,2.07808 -12.09793,4.60734 -10.10692,6.1414 -10.40224,16.12381 -0.76129,25.73205 7.40731,7.3822 10.943,8.14087 19.6062,4.20705 z m -300.80489,-6.1261 c 9.55292,-10.30564 9.85168,-14.10251 1.70627,-21.68565 -3.98386,-3.70887 -9.61096,-6.74338 -12.50468,-6.74338 -6.38353,0 -16.71845,7.71213 -18.7084,13.9606 -2.46403,7.73719 9.83488,20.5396 19.95145,20.7682 2.00171,0.0452 6.3016,-2.78965 9.55536,-6.29977 z m 68.36821,-76.92322 c -24.27517,-1.3315 -25.70133,-1.69207 -28.49148,-7.20349 -1.61545,-3.19101 -2.95261,-13.89541 -2.97151,-23.78755 l -0.0342,-17.9857 h 102.70661 102.7066 l -0.84432,18.52865 c -0.73351,16.09774 -1.60603,19.26542 -6.65033,24.14412 l -5.80601,5.61546 -67.53048,1.04506 c -37.14176,0.57477 -79.02992,0.41434 -93.08479,-0.35655 z"
       id="path1" />
  </g>
</svg>
